<svg width="31" height="14" viewBox="0 0 31 14" fill="none" xmlns="http://www.w3.org/2000/svg">
<path d="M2.44255 13H0.930547V0.436H5.50255C6.66655 0.436 7.55455 0.754 8.16655 1.39C8.77855 2.026 9.08455 2.914 9.08455 4.054C9.08455 5.074 8.82055 5.89 8.29255 6.502C7.76455 7.114 6.99655 7.468 5.98855 7.564L9.19255 13H7.50055L4.44055 7.636H2.44255V13ZM5.46655 6.358C6.10255 6.358 6.59455 6.202 6.94255 5.89C7.30255 5.566 7.48255 5.11 7.48255 4.522V3.586C7.48255 2.998 7.30255 2.548 6.94255 2.236C6.59455 1.912 6.10255 1.75 5.46655 1.75H2.44255V6.358H5.46655ZM11.7235 13V0.436H19.4635V1.75H13.2355V5.98H19.2475V7.294H13.2355V11.686H19.4635V13H11.7235ZM26.7105 13.216C25.1745 13.216 24.0285 12.658 23.2725 11.542C22.5285 10.426 22.1565 8.818 22.1565 6.718C22.1565 4.618 22.5285 3.01 23.2725 1.894C24.0285 0.777999 25.1745 0.219999 26.7105 0.219999C27.2865 0.219999 27.7845 0.297999 28.2045 0.454C28.6245 0.61 28.9845 0.819999 29.2845 1.084C29.5845 1.348 29.8365 1.648 30.0405 1.984C30.2445 2.308 30.4245 2.638 30.5805 2.974L29.2845 3.568C29.1765 3.292 29.0505 3.034 28.9065 2.794C28.7625 2.542 28.5885 2.326 28.3845 2.146C28.1925 1.954 27.9585 1.804 27.6825 1.696C27.4185 1.588 27.0945 1.534 26.7105 1.534C25.7145 1.534 24.9705 1.912 24.4785 2.668C23.9985 3.424 23.7585 4.432 23.7585 5.692V7.744C23.7585 9.004 23.9985 10.012 24.4785 10.768C24.9705 11.524 25.7145 11.902 26.7105 11.902C27.0945 11.902 27.4185 11.848 27.6825 11.74C27.9585 11.632 28.1925 11.488 28.3845 11.308C28.5885 11.116 28.7625 10.9 28.9065 10.66C29.0505 10.408 29.1765 10.144 29.2845 9.868L30.5805 10.462C30.4245 10.81 30.2445 11.146 30.0405 11.47C29.8365 11.794 29.5845 12.088 29.2845 12.352C28.9845 12.616 28.6245 12.826 28.2045 12.982C27.7845 13.138 27.2865 13.216 26.7105 13.216Z" fill="#FF0070"/>
</svg>
